0
SECTION
2
HEADER
9
$ACADVER
1
AC1015
9
$INSBASE
10
0.0000000000000000
20
0.0000000000000000
30
0.0000000000000000
9
$INSUNITS
70
0
9
$LUNITS
70
2
9
$EXTMIN
10
0.0000000000000000
20
0.0000000000000000
30
0.0000000000000000
9
$EXTMAX
10
0.0000000000000000
20
0.0000000000000000
30
0.0000000000000000
9
$LTSCALE
40
1.0000000000000000
9
$HANDSEED
5
23
0
ENDSEC
0
SECTION
2
CLASSES
0
ENDSEC
0
SECTION
2
TABLES
0
TABLE
2
VPORT
5
1
100
AcDbSymbolTable
70
0
0
ENDTAB
0
TABLE
2
LTYPE
5
2
100
AcDbSymbolTable
70
5
0
LTYPE
5
3
330
2
100
AcDbSymbolTableRecord
100
AcDbLinetypeTableRecord
2
ByLayer
70
0
3

72
65
73
0
40
0.0000000000000000
0
LTYPE
5
4
330
2
100
AcDbSymbolTableRecord
100
AcDbLinetypeTableRecord
2
ByBlock
70
0
3

72
65
73
0
40
0.0000000000000000
0
LTYPE
5
5
330
2
100
AcDbSymbolTableRecord
100
AcDbLinetypeTableRecord
2
Continuous
70
0
3
Solid Line
72
65
73
0
40
0.0000000000000000
0
LTYPE
5
6
330
2
100
AcDbSymbolTableRecord
100
AcDbLinetypeTableRecord
2
HIDDEN
70
0
3
Hidden __ __ __ __ __ __ __ __ __ __ __ __ __ _
72
65
73
2
40
0.3750000000000000
49
0.2500000000000000
74
0
49
-0.1250000000000000
74
0
0
LTYPE
5
7
330
2
100
AcDbSymbolTableRecord
100
AcDbLinetypeTableRecord
2
DASHDOT
70
0
3
Dash dot __ . __ . __ . __ . __ . __ . __ . __
72
65
73
4
40
1.0000000000000000
49
0.5000000000000000
74
0
49
-0.2500000000000000
74
0
49
0.0000000000000000
74
0
49
-0.2500000000000000
74
0
0
ENDTAB
0
TABLE
2
LAYER
5
8
100
AcDbSymbolTable
70
2
0
LAYER
5
9
330
8
100
AcDbSymbolTableRecord
100
AcDbLayerTableRecord
2
0
70
0
62
7
6
Continuous
370
-3
390
21
0
LAYER
5
A
330
8
100
AcDbSymbolTableRecord
100
AcDbLayerTableRecord
2
CUT
70
0
62
1
6
Continuous
370
-3
390
21
0
ENDTAB
0
TABLE
2
STYLE
5
B
100
AcDbSymbolTable
70
1
0
STYLE
5
C
330
B
100
AcDbSymbolTableRecord
100
AcDbTextStyleTableRecord
2
Standard
70
0
40
0.0000000000000000
41
1.0000000000000000
50
0.0000000000000000
71
0
42
100.0000000000000000
3
arial.ttf
4

0
ENDTAB
0
TABLE
2
VIEW
5
D
100
AcDbSymbolTable
70
0
0
ENDTAB
0
TABLE
2
UCS
5
E
100
AcDbSymbolTable
70
0
0
ENDTAB
0
TABLE
2
APPID
5
F
100
AcDbSymbolTable
70
1
0
APPID
5
10
330
F
100
AcDbSymbolTableRecord
100
AcDbRegAppTableRecord
2
ACAD
70
0
0
ENDTAB
0
TABLE
2
DIMSTYLE
5
11
100
AcDbSymbolTable
70
0
100
AcDbDimStyleTable
71
0
0
ENDTAB
0
TABLE
2
BLOCK_RECORD
5
12
100
AcDbSymbolTable
70
3
0
BLOCK_RECORD
5
13
330
12
100
AcDbSymbolTableRecord
100
AcDbBlockTableRecord
2
*Model_Space
70
0
280
1
281
0
0
BLOCK_RECORD
5
14
330
12
100
AcDbSymbolTableRecord
100
AcDbBlockTableRecord
2
*Paper_Space
70
0
280
1
281
0
0
BLOCK_RECORD
5
15
330
12
100
AcDbSymbolTableRecord
100
AcDbBlockTableRecord
2
*Paper_Space0
70
0
280
1
281
0
0
ENDTAB
0
ENDSEC
0
SECTION
2
BLOCKS
0
BLOCK
5
16
100
AcDbEntity
8
0
100
AcDbBlockBegin
2
*Model_Space
70
0
10
0.0000000000000000
20
0.0000000000000000
30
0.0000000000000000
3
*Model_Space
1

0
ENDBLK
5
17
100
AcDbEntity
8
0
100
AcDbBlockEnd
0
BLOCK
5
18
100
AcDbEntity
8
0
100
AcDbBlockBegin
2
*Paper_Space
70
0
10
0.0000000000000000
20
0.0000000000000000
30
0.0000000000000000
3
*Paper_Space
1

0
ENDBLK
5
19
100
AcDbEntity
8
0
100
AcDbBlockEnd
0
BLOCK
5
1A
100
AcDbEntity
8
0
100
AcDbBlockBegin
2
*Paper_Space0
70
0
10
0.0000000000000000
20
0.0000000000000000
30
0.0000000000000000
3
*Paper_Space0
1

0
ENDBLK
5
1B
100
AcDbEntity
8
0
100
AcDbBlockEnd
0
ENDSEC
0
SECTION
2
ENTITIES
0
LWPOLYLINE
5
1C
100
AcDbEntity
8
CUT
100
AcDbPolyline
90
153
70
1
10
0.0000000000000000
20
830.0000000000000000
10
0.3842943919353914
20
833.9018064403226163
10
1.5224093497742643
20
837.6536686473017426
10
3.3706077539490948
20
841.1114046603920542
10
5.8578643762690490
20
844.1421356237309510
10
8.8885953396079547
20
846.6293922460508838
10
12.3463313526982041
20
848.4775906502256930
10
16.0981935596774335
20
849.6157056080645589
10
20.0000000000000000
20
850.0000000000000000
10
180.0000000000000000
20
850.0000000000000000
10
182.5881904510252127
20
849.6592582628907167
10
185.0000000000000000
20
848.6602540378444246
10
187.0710678118654755
20
847.0710678118654187
10
188.6602540378443962
20
845.0000000000000000
10
189.6592582628906882
20
842.5881904510251843
10
190.0000000000000000
20
840.0000000000000000
10
190.0000000000000000
20
838.0000000000000000
10
190.3915478696387709
20
835.5278640450004559
10
191.5278640450004275
20
833.2977179816601847
10
193.2977179816602131
20
831.5278640450004559
10
195.5278640450004275
20
830.3915478696387709
10
198.0000000000000000
20
830.0000000000000000
10
502.0000000000000000
20
830.0000000000000000
10
504.4721359549996009
20
830.3915478696387709
10
506.7022820183397585
20
831.5278640450004559
10
508.4721359549996009
20
833.2977179816601847
10
509.6084521303612291
20
835.5278640450004559
10
510.0000000000000000
20
838.0000000000000000
10
510.0000000000000000
20
840.0000000000000000
10
510.3407417371093402
20
842.5881904510251843
10
511.3397459621556322
20
845.0000000000000000
10
512.9289321881345813
20
847.0710678118654187
10
515.0000000000000000
20
848.6602540378444246
10
517.4118095489748157
20
849.6592582628907167
10
520.0000000000000000
20
850.0000000000000000
10
880.0000000000000000
20
850.0000000000000000
10
882.5881904510251843
20
849.6592582628907167
10
885.0000000000000000
20
848.6602540378444246
10
887.0710678118654187
20
847.0710678118654187
10
888.6602540378444246
20
845.0000000000000000
10
889.6592582628907167
20
842.5881904510251843
10
890.0000000000000000
20
840.0000000000000000
10
890.0000000000000000
20
838.0000000000000000
10
890.3915478696387709
20
835.5278640450004559
10
891.5278640450004559
20
833.2977179816601847
10
893.2977179816601847
20
831.5278640450004559
10
895.5278640450004559
20
830.3915478696387709
10
898.0000000000000000
20
830.0000000000000000
10
1202.0000000000000000
20
830.0000000000000000
10
1204.4721359549996578
20
830.3915478696387709
10
1206.7022820183397016
20
831.5278640450004559
10
1208.4721359549996578
20
833.2977179816601847
10
1209.6084521303612291
20
835.5278640450004559
10
1210.0000000000000000
20
838.0000000000000000
10
1210.0000000000000000
20
840.0000000000000000
10
1210.3407417371092833
20
842.5881904510251843
10
1211.3397459621555754
20
845.0000000000000000
10
1212.9289321881344677
20
847.0710678118654187
10
1215.0000000000000000
20
848.6602540378444246
10
1217.4118095489748157
20
849.6592582628907167
10
1220.0000000000000000
20
850.0000000000000000
10
1380.0000000000000000
20
850.0000000000000000
10
1383.9018064403226163
20
849.6157056080645589
10
1387.6536686473018563
20
848.4775906502256930
10
1391.1114046603920542
20
846.6293922460508838
10
1394.1421356237308373
20
844.1421356237309510
10
1396.6293922460508838
20
841.1114046603920542
10
1398.4775906502256930
20
837.6536686473017426
10
1399.6157056080646726
20
833.9018064403226163
10
1400.0000000000000000
20
830.0000000000000000
10
1400.0000000000000000
20
136.7295401695068051
10
1399.6014850636900064
20
127.8107861585743024
10
1398.4091165378495134
20
118.9631172813744229
10
1396.4323979558209885
20
110.2570521018889309
10
1393.6870843552010228
20
101.7619805603280838
10
1390.1950567054832391
20
93.5456109145785319
10
1385.9841475101966353
20
85.6734300851618116
10
1381.0879189735360342
20
78.2081817049149919
10
1375.5453954995705317
20
71.2093660334939216
10
1369.4007526560849328
20
64.7327657225294359
10
1362.7029650821070845
20
58.8300012112300976
10
1355.5054161454063433
20
53.5481192960613868
10
1347.8654724611049005
20
48.9292181537236957
10
1339.8440266626178072
20
45.0101118061082275
10
1331.5050120691748816
20
41.8220367015452155
10
1322.9148931181682656
20
39.3904027509796038
10
1314.1421356237308373
20
37.7345908033901338
10
1085.4393140087618121
20
5.0627591441088446
10
1076.8895633619667933
20
4.2142048143428070
10
1068.2985306908419716
20
4.1026780614975280
10
1059.7296335214000464
20
4.7290021568863096
10
1051.2461259791864450
20
6.0885536837288328
10
1042.9106318582005315
20
8.1712966664189253
10
1034.7846823428160405
20
10.9618566543708198
10
1026.9282617951578231
20
14.4396342135699030
10
1019.3993649608545411
20
18.5789569880526031
10
1011.3868805450583750
20
23.4436796690716847
10
992.5282255582958442
20
34.4292021168383826
10
973.2825146359247128
20
44.7215867993426173
10
953.6752125570556018
20
54.3072154458164960
10
933.7322625366941793
20
63.1734049230097980
10
913.4800518992233265
20
71.3084240167574990
10
892.9453771642658921
20
78.7015089540235522
10
872.1554085911253651
20
85.3428776448849931
10
851.1376542287155189
20
91.2237426256109529
10
829.9199235185479893
20
96.3363226857114796
10
808.5302904989341641
20
100.6738531635722893
10
786.9970566590890257
20
104.2305948970521285
10
765.3487134922854693
20
107.0018418172008978
10
743.6139047976056418
20
108.9839271750494163
10
721.8213887801716737
20
110.1742283932339888
10
700.0000000000001137
20
110.5711705360341739
10
678.1786112198285537
20
110.1742283932341024
10
656.3860952023946993
20
108.9839271750495300
10
634.6512865077148717
20
107.0018418172008978
10
613.0029433409112016
20
104.2305948970521285
10
591.4697095010660632
20
100.6738531635722893
10
570.0800764814522381
20
96.3363226857114796
10
548.8623457712847085
20
91.2237426256109529
10
527.8445914088747486
20
85.3428776448851067
10
507.0546228357342784
20
78.7015089540236659
10
486.5199481007769009
20
71.3084240167576127
10
466.2677374633061049
20
63.1734049230099117
10
446.3247874429447393
20
54.3072154458164960
10
426.7174853640755714
20
44.7215867993426173
10
407.4717744417043832
20
34.4292021168383826
10
388.6131194549415682
20
23.4436796690716847
10
380.6006350391454589
20
18.5789569880526031
10
373.0717382048420632
20
14.4396342135698461
10
365.2153176571838458
20
10.9618566543707630
10
357.0893681417993548
20
8.1712966664188684
10
348.7538740208134982
20
6.0885536837287901
10
340.2703664785998399
20
4.7290021568862812
10
331.7014693091579147
20
4.1026780614975138
10
323.1104366380330362
20
4.2142048143427928
10
314.5606859912380742
20
5.0627591441088446
10
85.8578643762690632
20
37.7345908033901338
10
77.0851068818317060
20
39.3904027509795753
10
68.4949879308250758
20
41.8220367015451870
10
60.1559733373822638
20
45.0101118061081991
10
52.1345275388951421
20
48.9292181537236530
10
44.4945838545936567
20
53.5481192960613441
10
37.2970349178930292
20
58.8300012112300550
10
30.5992473439151951
20
64.7327657225293933
10
24.4546045004293831
20
71.2093660334938647
10
18.9120810264639800
20
78.2081817049149208
10
14.0158524898034500
20
85.6734300851617405
10
9.8049432945167183
20
93.5456109145784751
10
6.3129156447991193
20
101.7619805603279985
10
3.5676020441790399
20
110.2570521018888456
10
1.5908834621505150
20
118.9631172813743376
10
0.3985149363099652
20
127.8107861585742171
10
0.0000000000000000
20
136.7295401695068051
0
ENDSEC
0
SECTION
2
OBJECTS
0
DICTIONARY
5
1D
100
AcDbDictionary
281
1
3
ACAD_GROUP
350
22
3
ACAD_PLOTSTYLENAME
350
20
0
ACDBDICTIONARYWDFLT
5
20
102
{ACAD_REACTORS
330
1D
102
}
330
1D
100
AcDbDictionary
281
1
3
Normal
350
21
100
AcDbDictionaryWithDefault
340
21
0
ACDBPLACEHOLDER
5
21
102
{ACAD_REACTORS
330
20
102
}
330
20
0
DICTIONARY
5
22
100
AcDbDictionary
281
1
0
ENDSEC
0
EOF
