0
SECTION
2
HEADER
9
$ACADVER
1
AC1015
9
$INSBASE
10
0.0000000000000000
20
0.0000000000000000
30
0.0000000000000000
9
$INSUNITS
70
0
9
$LUNITS
70
2
9
$EXTMIN
10
0.0000000000000000
20
0.0000000000000000
30
0.0000000000000000
9
$EXTMAX
10
0.0000000000000000
20
0.0000000000000000
30
0.0000000000000000
9
$LTSCALE
40
1.0000000000000000
9
$HANDSEED
5
23
0
ENDSEC
0
SECTION
2
CLASSES
0
ENDSEC
0
SECTION
2
TABLES
0
TABLE
2
VPORT
5
1
100
AcDbSymbolTable
70
0
0
ENDTAB
0
TABLE
2
LTYPE
5
2
100
AcDbSymbolTable
70
5
0
LTYPE
5
3
330
2
100
AcDbSymbolTableRecord
100
AcDbLinetypeTableRecord
2
ByLayer
70
0
3

72
65
73
0
40
0.0000000000000000
0
LTYPE
5
4
330
2
100
AcDbSymbolTableRecord
100
AcDbLinetypeTableRecord
2
ByBlock
70
0
3

72
65
73
0
40
0.0000000000000000
0
LTYPE
5
5
330
2
100
AcDbSymbolTableRecord
100
AcDbLinetypeTableRecord
2
Continuous
70
0
3
Solid Line
72
65
73
0
40
0.0000000000000000
0
LTYPE
5
6
330
2
100
AcDbSymbolTableRecord
100
AcDbLinetypeTableRecord
2
HIDDEN
70
0
3
Hidden __ __ __ __ __ __ __ __ __ __ __ __ __ _
72
65
73
2
40
0.3750000000000000
49
0.2500000000000000
74
0
49
-0.1250000000000000
74
0
0
LTYPE
5
7
330
2
100
AcDbSymbolTableRecord
100
AcDbLinetypeTableRecord
2
DASHDOT
70
0
3
Dash dot __ . __ . __ . __ . __ . __ . __ . __
72
65
73
4
40
1.0000000000000000
49
0.5000000000000000
74
0
49
-0.2500000000000000
74
0
49
0.0000000000000000
74
0
49
-0.2500000000000000
74
0
0
ENDTAB
0
TABLE
2
LAYER
5
8
100
AcDbSymbolTable
70
2
0
LAYER
5
9
330
8
100
AcDbSymbolTableRecord
100
AcDbLayerTableRecord
2
0
70
0
62
7
6
Continuous
370
-3
390
21
0
LAYER
5
A
330
8
100
AcDbSymbolTableRecord
100
AcDbLayerTableRecord
2
CUT
70
0
62
1
6
Continuous
370
-3
390
21
0
ENDTAB
0
TABLE
2
STYLE
5
B
100
AcDbSymbolTable
70
1
0
STYLE
5
C
330
B
100
AcDbSymbolTableRecord
100
AcDbTextStyleTableRecord
2
Standard
70
0
40
0.0000000000000000
41
1.0000000000000000
50
0.0000000000000000
71
0
42
100.0000000000000000
3
arial.ttf
4

0
ENDTAB
0
TABLE
2
VIEW
5
D
100
AcDbSymbolTable
70
0
0
ENDTAB
0
TABLE
2
UCS
5
E
100
AcDbSymbolTable
70
0
0
ENDTAB
0
TABLE
2
APPID
5
F
100
AcDbSymbolTable
70
1
0
APPID
5
10
330
F
100
AcDbSymbolTableRecord
100
AcDbRegAppTableRecord
2
ACAD
70
0
0
ENDTAB
0
TABLE
2
DIMSTYLE
5
11
100
AcDbSymbolTable
70
0
100
AcDbDimStyleTable
71
0
0
ENDTAB
0
TABLE
2
BLOCK_RECORD
5
12
100
AcDbSymbolTable
70
3
0
BLOCK_RECORD
5
13
330
12
100
AcDbSymbolTableRecord
100
AcDbBlockTableRecord
2
*Model_Space
70
0
280
1
281
0
0
BLOCK_RECORD
5
14
330
12
100
AcDbSymbolTableRecord
100
AcDbBlockTableRecord
2
*Paper_Space
70
0
280
1
281
0
0
BLOCK_RECORD
5
15
330
12
100
AcDbSymbolTableRecord
100
AcDbBlockTableRecord
2
*Paper_Space0
70
0
280
1
281
0
0
ENDTAB
0
ENDSEC
0
SECTION
2
BLOCKS
0
BLOCK
5
16
100
AcDbEntity
8
0
100
AcDbBlockBegin
2
*Model_Space
70
0
10
0.0000000000000000
20
0.0000000000000000
30
0.0000000000000000
3
*Model_Space
1

0
ENDBLK
5
17
100
AcDbEntity
8
0
100
AcDbBlockEnd
0
BLOCK
5
18
100
AcDbEntity
8
0
100
AcDbBlockBegin
2
*Paper_Space
70
0
10
0.0000000000000000
20
0.0000000000000000
30
0.0000000000000000
3
*Paper_Space
1

0
ENDBLK
5
19
100
AcDbEntity
8
0
100
AcDbBlockEnd
0
BLOCK
5
1A
100
AcDbEntity
8
0
100
AcDbBlockBegin
2
*Paper_Space0
70
0
10
0.0000000000000000
20
0.0000000000000000
30
0.0000000000000000
3
*Paper_Space0
1

0
ENDBLK
5
1B
100
AcDbEntity
8
0
100
AcDbBlockEnd
0
ENDSEC
0
SECTION
2
ENTITIES
0
LWPOLYLINE
5
1C
100
AcDbEntity
8
CUT
100
AcDbPolyline
90
153
70
1
10
0.0000000000000000
20
830.0000000000000000
10
0.3842943919353914
20
833.9018064403226163
10
1.5224093497742643
20
837.6536686473017426
10
3.3706077539490948
20
841.1114046603920542
10
5.8578643762690490
20
844.1421356237309510
10
8.8885953396079547
20
846.6293922460508838
10
12.3463313526982041
20
848.4775906502256930
10
16.0981935596774335
20
849.6157056080645589
10
20.0000000000000036
20
850.0000000000000000
10
180.0000000000000000
20
850.0000000000000000
10
182.5881904510252127
20
849.6592582628907167
10
185.0000000000000000
20
848.6602540378444246
10
187.0710678118654755
20
847.0710678118655323
10
188.6602540378443962
20
845.0000000000000000
10
189.6592582628906882
20
842.5881904510251843
10
190.0000000000000000
20
840.0000000000000000
10
190.0000000000000000
20
838.0000000000000000
10
190.3915478696387709
20
835.5278640450004559
10
191.5278640450004275
20
833.2977179816601847
10
193.2977179816602131
20
831.5278640450004559
10
195.5278640450004275
20
830.3915478696387709
10
198.0000000000000000
20
830.0000000000000000
10
502.0000000000000000
20
830.0000000000000000
10
504.4721359549996009
20
830.3915478696387709
10
506.7022820183397585
20
831.5278640450004559
10
508.4721359549996009
20
833.2977179816601847
10
509.6084521303612291
20
835.5278640450004559
10
510.0000000000000000
20
838.0000000000000000
10
510.0000000000000000
20
840.0000000000000000
10
510.3407417371093402
20
842.5881904510251843
10
511.3397459621556322
20
845.0000000000000000
10
512.9289321881345813
20
847.0710678118654187
10
515.0000000000000000
20
848.6602540378444246
10
517.4118095489748157
20
849.6592582628907167
10
520.0000000000000000
20
850.0000000000000000
10
880.0000000000000000
20
850.0000000000000000
10
882.5881904510251843
20
849.6592582628907167
10
885.0000000000000000
20
848.6602540378444246
10
887.0710678118655323
20
847.0710678118655323
10
888.6602540378444246
20
845.0000000000000000
10
889.6592582628907167
20
842.5881904510251843
10
890.0000000000000000
20
840.0000000000000000
10
890.0000000000000000
20
838.0000000000000000
10
890.3915478696387709
20
835.5278640450004559
10
891.5278640450004559
20
833.2977179816601847
10
893.2977179816601847
20
831.5278640450004559
10
895.5278640450004559
20
830.3915478696387709
10
898.0000000000000000
20
830.0000000000000000
10
1202.0000000000000000
20
830.0000000000000000
10
1204.4721359549996578
20
830.3915478696387709
10
1206.7022820183397016
20
831.5278640450004559
10
1208.4721359549996578
20
833.2977179816601847
10
1209.6084521303612291
20
835.5278640450004559
10
1210.0000000000000000
20
838.0000000000000000
10
1210.0000000000000000
20
840.0000000000000000
10
1210.3407417371092833
20
842.5881904510251843
10
1211.3397459621555754
20
845.0000000000000000
10
1212.9289321881344677
20
847.0710678118654187
10
1215.0000000000000000
20
848.6602540378444246
10
1217.4118095489748157
20
849.6592582628907167
10
1220.0000000000000000
20
850.0000000000000000
10
1380.0000000000000000
20
850.0000000000000000
10
1383.9018064403226163
20
849.6157056080645589
10
1387.6536686473018563
20
848.4775906502256930
10
1391.1114046603920542
20
846.6293922460508838
10
1394.1421356237308373
20
844.1421356237309510
10
1396.6293922460508838
20
841.1114046603920542
10
1398.4775906502256930
20
837.6536686473017426
10
1399.6157056080646726
20
833.9018064403226163
10
1400.0000000000000000
20
830.0000000000000000
10
1400.0000000000000000
20
136.7295401695067767
10
1399.6014850636900064
20
127.8107861585742739
10
1398.4091165378495134
20
118.9631172813743945
10
1396.4323979558209885
20
110.2570521018889025
10
1393.6870843552007955
20
101.7619805603280554
10
1390.1950567054832391
20
93.5456109145785035
10
1385.9841475101966353
20
85.6734300851617832
10
1381.0879189735360342
20
78.2081817049149777
10
1375.5453954995705317
20
71.2093660334939074
10
1369.4007526560847054
20
64.7327657225294217
10
1362.7029650821070845
20
58.8300012112300976
10
1355.5054161454063433
20
53.5481192960613868
10
1347.8654724611049005
20
48.9292181537236957
10
1339.8440266626178072
20
45.0101118061082275
10
1331.5050120691748816
20
41.8220367015452297
10
1322.9148931181682656
20
39.3904027509796180
10
1314.1421356237310647
20
37.7345908033901338
10
1085.1472287183069056
20
5.0210326740438331
10
1076.6628188793397385
20
4.1761596297394021
10
1068.1372779279349743
20
4.0571123178092563
10
1059.6325857119686589
20
4.6647562005537395
10
1051.2105705110511735
20
5.9946737664472067
10
1042.9324595509899609
20
8.0371966450142622
10
1034.8584338878524704
20
10.7774758949363587
10
1027.0471908975821407
20
14.1955899544011288
10
1019.5555175518231863
20
18.2666894689060726
10
1008.6974532565159279
20
24.7815280460904361
10
989.9649019133737511
20
35.5669884052771295
10
970.8560126671667376
20
45.6706999391261661
10
951.3955864481499702
20
55.0795493032750301
10
931.6088804372707273
20
63.7813249968952505
10
911.5215752855306164
20
71.7647332116814596
10
891.1597417837360808
20
79.0194124897916481
10
870.5498070258977350
20
85.5359471717134738
10
849.7185201101923440
20
91.3058796166039883
10
828.6929174220038021
20
96.3217211792416492
10
807.5002875441026617
20
100.5769619293440655
10
786.1681358395035204
20
104.0660791006372392
10
764.7241487529707911
20
106.7845442587101843
10
743.1961578775013777
20
108.7288291783522709
10
721.6121038324248502
20
109.8964104227447933
10
700.0000000000000000
20
110.2857726185640104
10
678.3878961675752635
20
109.8964104227447933
10
656.8038421224987360
20
108.7288291783522709
10
635.2758512470293226
20
106.7845442587101843
10
613.8318641604964796
20
104.0660791006372392
10
592.4997124558974519
20
100.5769619293440655
10
571.3070825779961979
20
96.3217211792416492
10
550.2814798898077697
20
91.3058796166039883
10
529.4501929741022650
20
85.5359471717134738
10
508.8402582162640329
20
79.0194124897916481
10
488.4784247144694973
20
71.7647332116814596
10
468.3911195627293864
20
63.7813249968951368
10
448.6044135518502571
20
55.0795493032749164
10
429.1439873328334329
20
45.6706999391260524
10
410.0350980866263626
20
35.5669884052770158
10
391.3025467434840721
20
24.7815280460904361
10
380.4444824481768137
20
18.2666894689060726
10
372.9528091024179162
20
14.1955899544011857
10
365.1415661121477001
20
10.7774758949364156
10
357.0675404490102096
20
8.0371966450143049
10
348.7894294889489402
20
5.9946737664472352
10
340.3674142880315117
20
4.6647562005537537
10
331.8627220720651394
20
4.0571123178092705
10
323.3371811206604320
20
4.1761596297394163
10
314.8527712816931512
20
5.0210326740438331
10
85.8578643762690490
20
37.7345908033901338
10
77.0851068818317060
20
39.3904027509795895
10
68.4949879308250615
20
41.8220367015452013
10
60.1559733373822496
20
45.0101118061081991
10
52.1345275388951208
20
48.9292181537236672
10
44.4945838545936354
20
53.5481192960613583
10
37.2970349178930078
20
58.8300012112300692
10
30.5992473439151809
20
64.7327657225293933
10
24.4546045004293688
20
71.2093660334938789
10
18.9120810264639658
20
78.2081817049149493
10
14.0158524898034358
20
85.6734300851617547
10
9.8049432945167041
20
93.5456109145784751
10
6.3129156447991051
20
101.7619805603280270
10
3.5676020441790257
20
110.2570521018888741
10
1.5908834621505008
20
118.9631172813743660
10
0.3985149363099509
20
127.8107861585742455
10
0.0000000000000000
20
136.7295401695067767
0
ENDSEC
0
SECTION
2
OBJECTS
0
DICTIONARY
5
1D
100
AcDbDictionary
281
1
3
ACAD_GROUP
350
22
3
ACAD_PLOTSTYLENAME
350
20
0
ACDBDICTIONARYWDFLT
5
20
102
{ACAD_REACTORS
330
1D
102
}
330
1D
100
AcDbDictionary
281
1
3
Normal
350
21
100
AcDbDictionaryWithDefault
340
21
0
ACDBPLACEHOLDER
5
21
102
{ACAD_REACTORS
330
20
102
}
330
20
0
DICTIONARY
5
22
100
AcDbDictionary
281
1
0
ENDSEC
0
EOF
